<?xml version="1.0" standalone="no" ?>
<!DOCTYPE svg PUBLIC "-//W3C//DTD SVG 1.1//EN" "http://www.w3.org/Graphics/SVG/1.1/DTD/svg11.dtd">
<svg width="510" height="30" viewBox="0 0 510 30" version="1.1" xmlns="http://www.w3.org/2000/svg">
	<desc>Rerum eum exercitati</desc>
	<g id="bars" fill="rgb(0,0,0)" stroke="none">
		<rect x="0" y="0" width="4" height="30" />
		<rect x="6" y="0" width="2" height="30" />
		<rect x="12" y="0" width="2" height="30" />
		<rect x="22" y="0" width="4" height="30" />
		<rect x="32" y="0" width="2" height="30" />
		<rect x="36" y="0" width="6" height="30" />
		<rect x="44" y="0" width="2" height="30" />
		<rect x="48" y="0" width="4" height="30" />
		<rect x="56" y="0" width="2" height="30" />
		<rect x="66" y="0" width="2" height="30" />
		<rect x="72" y="0" width="2" height="30" />
		<rect x="78" y="0" width="8" height="30" />
		<rect x="88" y="0" width="2" height="30" />
		<rect x="94" y="0" width="8" height="30" />
		<rect x="106" y="0" width="2" height="30" />
		<rect x="110" y="0" width="8" height="30" />
		<rect x="120" y="0" width="6" height="30" />
		<rect x="128" y="0" width="2" height="30" />
		<rect x="132" y="0" width="4" height="30" />
		<rect x="138" y="0" width="4" height="30" />
		<rect x="146" y="0" width="4" height="30" />
		<rect x="154" y="0" width="2" height="30" />
		<rect x="158" y="0" width="4" height="30" />
		<rect x="166" y="0" width="2" height="30" />
		<rect x="176" y="0" width="2" height="30" />
		<rect x="182" y="0" width="8" height="30" />
		<rect x="194" y="0" width="2" height="30" />
		<rect x="198" y="0" width="8" height="30" />
		<rect x="208" y="0" width="6" height="30" />
		<rect x="216" y="0" width="2" height="30" />
		<rect x="220" y="0" width="4" height="30" />
		<rect x="226" y="0" width="4" height="30" />
		<rect x="234" y="0" width="4" height="30" />
		<rect x="242" y="0" width="2" height="30" />
		<rect x="246" y="0" width="4" height="30" />
		<rect x="254" y="0" width="2" height="30" />
		<rect x="264" y="0" width="8" height="30" />
		<rect x="276" y="0" width="2" height="30" />
		<rect x="282" y="0" width="2" height="30" />
		<rect x="286" y="0" width="2" height="30" />
		<rect x="290" y="0" width="4" height="30" />
		<rect x="298" y="0" width="2" height="30" />
		<rect x="308" y="0" width="2" height="30" />
		<rect x="314" y="0" width="2" height="30" />
		<rect x="320" y="0" width="8" height="30" />
		<rect x="330" y="0" width="2" height="30" />
		<rect x="340" y="0" width="2" height="30" />
		<rect x="344" y="0" width="4" height="30" />
		<rect x="352" y="0" width="2" height="30" />
		<rect x="362" y="0" width="4" height="30" />
		<rect x="368" y="0" width="2" height="30" />
		<rect x="374" y="0" width="2" height="30" />
		<rect x="380" y="0" width="8" height="30" />
		<rect x="390" y="0" width="2" height="30" />
		<rect x="396" y="0" width="2" height="30" />
		<rect x="402" y="0" width="2" height="30" />
		<rect x="406" y="0" width="4" height="30" />
		<rect x="418" y="0" width="2" height="30" />
		<rect x="424" y="0" width="8" height="30" />
		<rect x="434" y="0" width="2" height="30" />
		<rect x="440" y="0" width="2" height="30" />
		<rect x="450" y="0" width="4" height="30" />
		<rect x="456" y="0" width="2" height="30" />
		<rect x="462" y="0" width="8" height="30" />
		<rect x="472" y="0" width="6" height="30" />
		<rect x="480" y="0" width="2" height="30" />
		<rect x="484" y="0" width="4" height="30" />
		<rect x="494" y="0" width="6" height="30" />
		<rect x="502" y="0" width="2" height="30" />
		<rect x="506" y="0" width="4" height="30" />
	</g>
</svg>
