<?xml version="1.0" standalone="no" ?>
<!DOCTYPE svg PUBLIC "-//W3C//DTD SVG 1.1//EN" "http://www.w3.org/Graphics/SVG/1.1/DTD/svg11.dtd">
<svg width="136" height="30" viewBox="0 0 136 30" version="1.1" xmlns="http://www.w3.org/2000/svg">
	<desc>123456</desc>
	<g id="bars" fill="rgb(0,0,0)" stroke="none">
		<rect x="0" y="0" width="4" height="30" />
		<rect x="6" y="0" width="2" height="30" />
		<rect x="12" y="0" width="6" height="30" />
		<rect x="22" y="0" width="2" height="30" />
		<rect x="26" y="0" width="4" height="30" />
		<rect x="34" y="0" width="6" height="30" />
		<rect x="44" y="0" width="2" height="30" />
		<rect x="52" y="0" width="2" height="30" />
		<rect x="56" y="0" width="4" height="30" />
		<rect x="66" y="0" width="6" height="30" />
		<rect x="78" y="0" width="2" height="30" />
		<rect x="82" y="0" width="4" height="30" />
		<rect x="88" y="0" width="2" height="30" />
		<rect x="96" y="0" width="4" height="30" />
		<rect x="102" y="0" width="6" height="30" />
		<rect x="110" y="0" width="4" height="30" />
		<rect x="120" y="0" width="6" height="30" />
		<rect x="128" y="0" width="2" height="30" />
		<rect x="132" y="0" width="4" height="30" />
	</g>
</svg>
