<?xml version="1.0" standalone="no" ?>
<!DOCTYPE svg PUBLIC "-//W3C//DTD SVG 1.1//EN" "http://www.w3.org/Graphics/SVG/1.1/DTD/svg11.dtd">
<svg width="510" height="30" viewBox="0 0 510 30" version="1.1" xmlns="http://www.w3.org/2000/svg">
	<desc>Ad officiis ex place</desc>
	<g id="bars" fill="rgb(0,0,0)" stroke="none">
		<rect x="0" y="0" width="4" height="30" />
		<rect x="6" y="0" width="2" height="30" />
		<rect x="12" y="0" width="2" height="30" />
		<rect x="22" y="0" width="2" height="30" />
		<rect x="26" y="0" width="2" height="30" />
		<rect x="34" y="0" width="4" height="30" />
		<rect x="44" y="0" width="2" height="30" />
		<rect x="54" y="0" width="2" height="30" />
		<rect x="60" y="0" width="4" height="30" />
		<rect x="66" y="0" width="4" height="30" />
		<rect x="72" y="0" width="4" height="30" />
		<rect x="80" y="0" width="4" height="30" />
		<rect x="88" y="0" width="2" height="30" />
		<rect x="96" y="0" width="8" height="30" />
		<rect x="106" y="0" width="2" height="30" />
		<rect x="110" y="0" width="2" height="30" />
		<rect x="114" y="0" width="4" height="30" />
		<rect x="126" y="0" width="2" height="30" />
		<rect x="132" y="0" width="2" height="30" />
		<rect x="136" y="0" width="4" height="30" />
		<rect x="148" y="0" width="2" height="30" />
		<rect x="154" y="0" width="2" height="30" />
		<rect x="164" y="0" width="4" height="30" />
		<rect x="170" y="0" width="2" height="30" />
		<rect x="176" y="0" width="2" height="30" />
		<rect x="186" y="0" width="2" height="30" />
		<rect x="190" y="0" width="4" height="30" />
		<rect x="198" y="0" width="2" height="30" />
		<rect x="208" y="0" width="4" height="30" />
		<rect x="214" y="0" width="2" height="30" />
		<rect x="220" y="0" width="2" height="30" />
		<rect x="230" y="0" width="4" height="30" />
		<rect x="236" y="0" width="2" height="30" />
		<rect x="242" y="0" width="2" height="30" />
		<rect x="246" y="0" width="8" height="30" />
		<rect x="258" y="0" width="2" height="30" />
		<rect x="264" y="0" width="4" height="30" />
		<rect x="270" y="0" width="4" height="30" />
		<rect x="278" y="0" width="4" height="30" />
		<rect x="286" y="0" width="2" height="30" />
		<rect x="290" y="0" width="4" height="30" />
		<rect x="298" y="0" width="2" height="30" />
		<rect x="308" y="0" width="8" height="30" />
		<rect x="320" y="0" width="2" height="30" />
		<rect x="326" y="0" width="2" height="30" />
		<rect x="330" y="0" width="4" height="30" />
		<rect x="336" y="0" width="4" height="30" />
		<rect x="344" y="0" width="4" height="30" />
		<rect x="352" y="0" width="2" height="30" />
		<rect x="356" y="0" width="2" height="30" />
		<rect x="362" y="0" width="8" height="30" />
		<rect x="374" y="0" width="4" height="30" />
		<rect x="382" y="0" width="2" height="30" />
		<rect x="386" y="0" width="2" height="30" />
		<rect x="396" y="0" width="2" height="30" />
		<rect x="402" y="0" width="2" height="30" />
		<rect x="406" y="0" width="4" height="30" />
		<rect x="418" y="0" width="2" height="30" />
		<rect x="428" y="0" width="2" height="30" />
		<rect x="432" y="0" width="4" height="30" />
		<rect x="440" y="0" width="2" height="30" />
		<rect x="444" y="0" width="4" height="30" />
		<rect x="452" y="0" width="2" height="30" />
		<rect x="462" y="0" width="2" height="30" />
		<rect x="466" y="0" width="6" height="30" />
		<rect x="478" y="0" width="4" height="30" />
		<rect x="484" y="0" width="4" height="30" />
		<rect x="494" y="0" width="6" height="30" />
		<rect x="502" y="0" width="2" height="30" />
		<rect x="506" y="0" width="4" height="30" />
	</g>
</svg>
