<?xml version="1.0" standalone="no" ?>
<!DOCTYPE svg PUBLIC "-//W3C//DTD SVG 1.1//EN" "http://www.w3.org/Graphics/SVG/1.1/DTD/svg11.dtd">
<svg width="334" height="30" viewBox="0 0 334 30" version="1.1" xmlns="http://www.w3.org/2000/svg">
	<desc>SKU-ROOT-NEW</desc>
	<g id="bars" fill="rgb(0,0,0)" stroke="none">
		<rect x="0" y="0" width="4" height="30" />
		<rect x="6" y="0" width="2" height="30" />
		<rect x="12" y="0" width="2" height="30" />
		<rect x="22" y="0" width="4" height="30" />
		<rect x="28" y="0" width="6" height="30" />
		<rect x="36" y="0" width="2" height="30" />
		<rect x="44" y="0" width="2" height="30" />
		<rect x="48" y="0" width="4" height="30" />
		<rect x="58" y="0" width="6" height="30" />
		<rect x="66" y="0" width="4" height="30" />
		<rect x="72" y="0" width="6" height="30" />
		<rect x="80" y="0" width="6" height="30" />
		<rect x="88" y="0" width="2" height="30" />
		<rect x="94" y="0" width="4" height="30" />
		<rect x="100" y="0" width="6" height="30" />
		<rect x="110" y="0" width="4" height="30" />
		<rect x="120" y="0" width="2" height="30" />
		<rect x="124" y="0" width="6" height="30" />
		<rect x="132" y="0" width="2" height="30" />
		<rect x="140" y="0" width="6" height="30" />
		<rect x="148" y="0" width="4" height="30" />
		<rect x="154" y="0" width="2" height="30" />
		<rect x="162" y="0" width="6" height="30" />
		<rect x="170" y="0" width="4" height="30" />
		<rect x="176" y="0" width="4" height="30" />
		<rect x="182" y="0" width="6" height="30" />
		<rect x="194" y="0" width="2" height="30" />
		<rect x="198" y="0" width="2" height="30" />
		<rect x="204" y="0" width="4" height="30" />
		<rect x="210" y="0" width="6" height="30" />
		<rect x="220" y="0" width="2" height="30" />
		<rect x="224" y="0" width="6" height="30" />
		<rect x="236" y="0" width="4" height="30" />
		<rect x="242" y="0" width="2" height="30" />
		<rect x="250" y="0" width="4" height="30" />
		<rect x="256" y="0" width="2" height="30" />
		<rect x="264" y="0" width="6" height="30" />
		<rect x="272" y="0" width="2" height="30" />
		<rect x="280" y="0" width="4" height="30" />
		<rect x="286" y="0" width="8" height="30" />
		<rect x="296" y="0" width="6" height="30" />
		<rect x="304" y="0" width="2" height="30" />
		<rect x="308" y="0" width="4" height="30" />
		<rect x="318" y="0" width="6" height="30" />
		<rect x="326" y="0" width="2" height="30" />
		<rect x="330" y="0" width="4" height="30" />
	</g>
</svg>
