<?xml version="1.0" standalone="no" ?>
<!DOCTYPE svg PUBLIC "-//W3C//DTD SVG 1.1//EN" "http://www.w3.org/Graphics/SVG/1.1/DTD/svg11.dtd">
<svg width="444" height="30" viewBox="0 0 444 30" version="1.1" xmlns="http://www.w3.org/2000/svg">
	<desc>TEST-CURRENCY-999</desc>
	<g id="bars" fill="rgb(0,0,0)" stroke="none">
		<rect x="0" y="0" width="4" height="30" />
		<rect x="6" y="0" width="2" height="30" />
		<rect x="12" y="0" width="2" height="30" />
		<rect x="22" y="0" width="4" height="30" />
		<rect x="28" y="0" width="6" height="30" />
		<rect x="40" y="0" width="2" height="30" />
		<rect x="44" y="0" width="2" height="30" />
		<rect x="52" y="0" width="4" height="30" />
		<rect x="58" y="0" width="2" height="30" />
		<rect x="66" y="0" width="4" height="30" />
		<rect x="72" y="0" width="6" height="30" />
		<rect x="80" y="0" width="2" height="30" />
		<rect x="88" y="0" width="4" height="30" />
		<rect x="94" y="0" width="6" height="30" />
		<rect x="106" y="0" width="2" height="30" />
		<rect x="110" y="0" width="2" height="30" />
		<rect x="116" y="0" width="4" height="30" />
		<rect x="122" y="0" width="6" height="30" />
		<rect x="132" y="0" width="2" height="30" />
		<rect x="140" y="0" width="2" height="30" />
		<rect x="148" y="0" width="4" height="30" />
		<rect x="154" y="0" width="4" height="30" />
		<rect x="160" y="0" width="6" height="30" />
		<rect x="168" y="0" width="6" height="30" />
		<rect x="176" y="0" width="4" height="30" />
		<rect x="186" y="0" width="2" height="30" />
		<rect x="190" y="0" width="6" height="30" />
		<rect x="198" y="0" width="4" height="30" />
		<rect x="208" y="0" width="2" height="30" />
		<rect x="212" y="0" width="6" height="30" />
		<rect x="220" y="0" width="2" height="30" />
		<rect x="228" y="0" width="4" height="30" />
		<rect x="234" y="0" width="2" height="30" />
		<rect x="242" y="0" width="2" height="30" />
		<rect x="246" y="0" width="6" height="30" />
		<rect x="258" y="0" width="4" height="30" />
		<rect x="264" y="0" width="2" height="30" />
		<rect x="272" y="0" width="2" height="30" />
		<rect x="280" y="0" width="4" height="30" />
		<rect x="286" y="0" width="6" height="30" />
		<rect x="294" y="0" width="4" height="30" />
		<rect x="300" y="0" width="2" height="30" />
		<rect x="308" y="0" width="2" height="30" />
		<rect x="314" y="0" width="4" height="30" />
		<rect x="320" y="0" width="6" height="30" />
		<rect x="330" y="0" width="6" height="30" />
		<rect x="340" y="0" width="2" height="30" />
		<rect x="344" y="0" width="4" height="30" />
		<rect x="352" y="0" width="6" height="30" />
		<rect x="362" y="0" width="2" height="30" />
		<rect x="366" y="0" width="4" height="30" />
		<rect x="374" y="0" width="6" height="30" />
		<rect x="384" y="0" width="2" height="30" />
		<rect x="388" y="0" width="4" height="30" />
		<rect x="396" y="0" width="2" height="30" />
		<rect x="404" y="0" width="6" height="30" />
		<rect x="412" y="0" width="4" height="30" />
		<rect x="418" y="0" width="4" height="30" />
		<rect x="428" y="0" width="6" height="30" />
		<rect x="436" y="0" width="2" height="30" />
		<rect x="440" y="0" width="4" height="30" />
	</g>
</svg>
