<?xml version="1.0" standalone="no" ?>
<!DOCTYPE svg PUBLIC "-//W3C//DTD SVG 1.1//EN" "http://www.w3.org/Graphics/SVG/1.1/DTD/svg11.dtd">
<svg width="268" height="30" viewBox="0 0 268 30" version="1.1" xmlns="http://www.w3.org/2000/svg">
	<desc>DIA-009-B</desc>
	<g id="bars" fill="rgb(0,0,0)" stroke="none">
		<rect x="0" y="0" width="4" height="30" />
		<rect x="6" y="0" width="2" height="30" />
		<rect x="12" y="0" width="2" height="30" />
		<rect x="22" y="0" width="2" height="30" />
		<rect x="26" y="0" width="4" height="30" />
		<rect x="36" y="0" width="2" height="30" />
		<rect x="44" y="0" width="4" height="30" />
		<rect x="54" y="0" width="2" height="30" />
		<rect x="62" y="0" width="2" height="30" />
		<rect x="66" y="0" width="2" height="30" />
		<rect x="70" y="0" width="2" height="30" />
		<rect x="78" y="0" width="4" height="30" />
		<rect x="88" y="0" width="2" height="30" />
		<rect x="94" y="0" width="4" height="30" />
		<rect x="100" y="0" width="6" height="30" />
		<rect x="110" y="0" width="2" height="30" />
		<rect x="116" y="0" width="6" height="30" />
		<rect x="124" y="0" width="4" height="30" />
		<rect x="132" y="0" width="2" height="30" />
		<rect x="138" y="0" width="6" height="30" />
		<rect x="146" y="0" width="4" height="30" />
		<rect x="154" y="0" width="6" height="30" />
		<rect x="164" y="0" width="2" height="30" />
		<rect x="168" y="0" width="4" height="30" />
		<rect x="176" y="0" width="2" height="30" />
		<rect x="182" y="0" width="4" height="30" />
		<rect x="188" y="0" width="6" height="30" />
		<rect x="198" y="0" width="2" height="30" />
		<rect x="206" y="0" width="2" height="30" />
		<rect x="210" y="0" width="4" height="30" />
		<rect x="220" y="0" width="4" height="30" />
		<rect x="228" y="0" width="4" height="30" />
		<rect x="234" y="0" width="4" height="30" />
		<rect x="242" y="0" width="4" height="30" />
		<rect x="252" y="0" width="6" height="30" />
		<rect x="260" y="0" width="2" height="30" />
		<rect x="264" y="0" width="4" height="30" />
	</g>
</svg>
