<?xml version="1.0" standalone="no" ?>
<!DOCTYPE svg PUBLIC "-//W3C//DTD SVG 1.1//EN" "http://www.w3.org/Graphics/SVG/1.1/DTD/svg11.dtd">
<svg width="246" height="30" viewBox="0 0 246 30" version="1.1" xmlns="http://www.w3.org/2000/svg">
	<desc>TEST-0001</desc>
	<g id="bars" fill="rgb(0,0,0)" stroke="none">
		<rect x="0" y="0" width="4" height="30" />
		<rect x="6" y="0" width="2" height="30" />
		<rect x="12" y="0" width="2" height="30" />
		<rect x="22" y="0" width="4" height="30" />
		<rect x="28" y="0" width="6" height="30" />
		<rect x="40" y="0" width="2" height="30" />
		<rect x="44" y="0" width="2" height="30" />
		<rect x="52" y="0" width="4" height="30" />
		<rect x="58" y="0" width="2" height="30" />
		<rect x="66" y="0" width="4" height="30" />
		<rect x="72" y="0" width="6" height="30" />
		<rect x="80" y="0" width="2" height="30" />
		<rect x="88" y="0" width="4" height="30" />
		<rect x="94" y="0" width="6" height="30" />
		<rect x="106" y="0" width="2" height="30" />
		<rect x="110" y="0" width="2" height="30" />
		<rect x="116" y="0" width="4" height="30" />
		<rect x="122" y="0" width="6" height="30" />
		<rect x="132" y="0" width="2" height="30" />
		<rect x="136" y="0" width="6" height="30" />
		<rect x="144" y="0" width="8" height="30" />
		<rect x="154" y="0" width="4" height="30" />
		<rect x="160" y="0" width="4" height="30" />
		<rect x="168" y="0" width="4" height="30" />
		<rect x="176" y="0" width="4" height="30" />
		<rect x="184" y="0" width="4" height="30" />
		<rect x="190" y="0" width="4" height="30" />
		<rect x="198" y="0" width="4" height="30" />
		<rect x="206" y="0" width="6" height="30" />
		<rect x="214" y="0" width="2" height="30" />
		<rect x="220" y="0" width="4" height="30" />
		<rect x="230" y="0" width="6" height="30" />
		<rect x="238" y="0" width="2" height="30" />
		<rect x="242" y="0" width="4" height="30" />
	</g>
</svg>
