<?xml version="1.0" standalone="no" ?>
<!DOCTYPE svg PUBLIC "-//W3C//DTD SVG 1.1//EN" "http://www.w3.org/Graphics/SVG/1.1/DTD/svg11.dtd">
<svg width="224" height="30" viewBox="0 0 224 30" version="1.1" xmlns="http://www.w3.org/2000/svg">
	<desc>00121-A</desc>
	<g id="bars" fill="rgb(0,0,0)" stroke="none">
		<rect x="0" y="0" width="4" height="30" />
		<rect x="6" y="0" width="2" height="30" />
		<rect x="12" y="0" width="2" height="30" />
		<rect x="22" y="0" width="2" height="30" />
		<rect x="28" y="0" width="6" height="30" />
		<rect x="36" y="0" width="4" height="30" />
		<rect x="44" y="0" width="2" height="30" />
		<rect x="48" y="0" width="6" height="30" />
		<rect x="56" y="0" width="8" height="30" />
		<rect x="66" y="0" width="4" height="30" />
		<rect x="74" y="0" width="4" height="30" />
		<rect x="80" y="0" width="4" height="30" />
		<rect x="88" y="0" width="4" height="30" />
		<rect x="94" y="0" width="6" height="30" />
		<rect x="104" y="0" width="2" height="30" />
		<rect x="110" y="0" width="2" height="30" />
		<rect x="114" y="0" width="8" height="30" />
		<rect x="124" y="0" width="6" height="30" />
		<rect x="132" y="0" width="2" height="30" />
		<rect x="138" y="0" width="4" height="30" />
		<rect x="144" y="0" width="6" height="30" />
		<rect x="154" y="0" width="2" height="30" />
		<rect x="158" y="0" width="2" height="30" />
		<rect x="166" y="0" width="4" height="30" />
		<rect x="176" y="0" width="2" height="30" />
		<rect x="182" y="0" width="2" height="30" />
		<rect x="186" y="0" width="8" height="30" />
		<rect x="198" y="0" width="4" height="30" />
		<rect x="208" y="0" width="6" height="30" />
		<rect x="216" y="0" width="2" height="30" />
		<rect x="220" y="0" width="4" height="30" />
	</g>
</svg>
