<?xml version="1.0" standalone="no" ?>
<!DOCTYPE svg PUBLIC "-//W3C//DTD SVG 1.1//EN" "http://www.w3.org/Graphics/SVG/1.1/DTD/svg11.dtd">
<svg width="466" height="30" viewBox="0 0 466 30" version="1.1" xmlns="http://www.w3.org/2000/svg">
	<desc>SKU-CURRENCY-999-2</desc>
	<g id="bars" fill="rgb(0,0,0)" stroke="none">
		<rect x="0" y="0" width="4" height="30" />
		<rect x="6" y="0" width="2" height="30" />
		<rect x="12" y="0" width="2" height="30" />
		<rect x="22" y="0" width="4" height="30" />
		<rect x="28" y="0" width="6" height="30" />
		<rect x="36" y="0" width="2" height="30" />
		<rect x="44" y="0" width="2" height="30" />
		<rect x="48" y="0" width="4" height="30" />
		<rect x="58" y="0" width="6" height="30" />
		<rect x="66" y="0" width="4" height="30" />
		<rect x="72" y="0" width="6" height="30" />
		<rect x="80" y="0" width="6" height="30" />
		<rect x="88" y="0" width="2" height="30" />
		<rect x="94" y="0" width="4" height="30" />
		<rect x="100" y="0" width="6" height="30" />
		<rect x="110" y="0" width="2" height="30" />
		<rect x="118" y="0" width="2" height="30" />
		<rect x="126" y="0" width="4" height="30" />
		<rect x="132" y="0" width="4" height="30" />
		<rect x="138" y="0" width="6" height="30" />
		<rect x="146" y="0" width="6" height="30" />
		<rect x="154" y="0" width="4" height="30" />
		<rect x="164" y="0" width="2" height="30" />
		<rect x="168" y="0" width="6" height="30" />
		<rect x="176" y="0" width="4" height="30" />
		<rect x="186" y="0" width="2" height="30" />
		<rect x="190" y="0" width="6" height="30" />
		<rect x="198" y="0" width="2" height="30" />
		<rect x="206" y="0" width="4" height="30" />
		<rect x="212" y="0" width="2" height="30" />
		<rect x="220" y="0" width="2" height="30" />
		<rect x="224" y="0" width="6" height="30" />
		<rect x="236" y="0" width="4" height="30" />
		<rect x="242" y="0" width="2" height="30" />
		<rect x="250" y="0" width="2" height="30" />
		<rect x="258" y="0" width="4" height="30" />
		<rect x="264" y="0" width="6" height="30" />
		<rect x="272" y="0" width="4" height="30" />
		<rect x="278" y="0" width="2" height="30" />
		<rect x="286" y="0" width="2" height="30" />
		<rect x="292" y="0" width="4" height="30" />
		<rect x="298" y="0" width="6" height="30" />
		<rect x="308" y="0" width="6" height="30" />
		<rect x="318" y="0" width="2" height="30" />
		<rect x="322" y="0" width="4" height="30" />
		<rect x="330" y="0" width="6" height="30" />
		<rect x="340" y="0" width="2" height="30" />
		<rect x="344" y="0" width="4" height="30" />
		<rect x="352" y="0" width="6" height="30" />
		<rect x="362" y="0" width="2" height="30" />
		<rect x="366" y="0" width="4" height="30" />
		<rect x="374" y="0" width="2" height="30" />
		<rect x="380" y="0" width="4" height="30" />
		<rect x="386" y="0" width="6" height="30" />
		<rect x="396" y="0" width="4" height="30" />
		<rect x="404" y="0" width="6" height="30" />
		<rect x="414" y="0" width="2" height="30" />
		<rect x="418" y="0" width="4" height="30" />
		<rect x="428" y="0" width="2" height="30" />
		<rect x="432" y="0" width="2" height="30" />
		<rect x="440" y="0" width="4" height="30" />
		<rect x="450" y="0" width="6" height="30" />
		<rect x="458" y="0" width="2" height="30" />
		<rect x="462" y="0" width="4" height="30" />
	</g>
</svg>
