<?xml version="1.0" standalone="no" ?>
<!DOCTYPE svg PUBLIC "-//W3C//DTD SVG 1.1//EN" "http://www.w3.org/Graphics/SVG/1.1/DTD/svg11.dtd">
<svg width="334" height="30" viewBox="0 0 334 30" version="1.1" xmlns="http://www.w3.org/2000/svg">
	<desc>COM0148-TEST</desc>
	<g id="bars" fill="rgb(0,0,0)" stroke="none">
		<rect x="0" y="0" width="4" height="30" />
		<rect x="6" y="0" width="2" height="30" />
		<rect x="12" y="0" width="2" height="30" />
		<rect x="22" y="0" width="2" height="30" />
		<rect x="30" y="0" width="2" height="30" />
		<rect x="38" y="0" width="4" height="30" />
		<rect x="44" y="0" width="2" height="30" />
		<rect x="52" y="0" width="6" height="30" />
		<rect x="60" y="0" width="4" height="30" />
		<rect x="66" y="0" width="2" height="30" />
		<rect x="70" y="0" width="6" height="30" />
		<rect x="78" y="0" width="4" height="30" />
		<rect x="88" y="0" width="2" height="30" />
		<rect x="92" y="0" width="6" height="30" />
		<rect x="100" y="0" width="8" height="30" />
		<rect x="110" y="0" width="4" height="30" />
		<rect x="118" y="0" width="4" height="30" />
		<rect x="124" y="0" width="4" height="30" />
		<rect x="132" y="0" width="6" height="30" />
		<rect x="140" y="0" width="6" height="30" />
		<rect x="148" y="0" width="4" height="30" />
		<rect x="154" y="0" width="2" height="30" />
		<rect x="158" y="0" width="8" height="30" />
		<rect x="168" y="0" width="6" height="30" />
		<rect x="176" y="0" width="2" height="30" />
		<rect x="182" y="0" width="4" height="30" />
		<rect x="188" y="0" width="6" height="30" />
		<rect x="198" y="0" width="4" height="30" />
		<rect x="204" y="0" width="6" height="30" />
		<rect x="216" y="0" width="2" height="30" />
		<rect x="220" y="0" width="2" height="30" />
		<rect x="228" y="0" width="4" height="30" />
		<rect x="234" y="0" width="2" height="30" />
		<rect x="242" y="0" width="4" height="30" />
		<rect x="248" y="0" width="6" height="30" />
		<rect x="256" y="0" width="2" height="30" />
		<rect x="264" y="0" width="4" height="30" />
		<rect x="270" y="0" width="6" height="30" />
		<rect x="282" y="0" width="2" height="30" />
		<rect x="286" y="0" width="2" height="30" />
		<rect x="296" y="0" width="4" height="30" />
		<rect x="302" y="0" width="2" height="30" />
		<rect x="308" y="0" width="4" height="30" />
		<rect x="318" y="0" width="6" height="30" />
		<rect x="326" y="0" width="2" height="30" />
		<rect x="330" y="0" width="4" height="30" />
	</g>
</svg>
