<?xml version="1.0" standalone="no" ?>
<!DOCTYPE svg PUBLIC "-//W3C//DTD SVG 1.1//EN" "http://www.w3.org/Graphics/SVG/1.1/DTD/svg11.dtd">
<svg width="158" height="50" viewBox="0 0 158 50" version="1.1" xmlns="http://www.w3.org/2000/svg">
	<desc>10010002</desc>
	<g id="bars" fill="rgb(0,0,0)" stroke="none">
		<rect x="0" y="0" width="4" height="50" />
		<rect x="6" y="0" width="2" height="50" />
		<rect x="12" y="0" width="6" height="50" />
		<rect x="22" y="0" width="4" height="50" />
		<rect x="30" y="0" width="2" height="50" />
		<rect x="38" y="0" width="2" height="50" />
		<rect x="44" y="0" width="4" height="50" />
		<rect x="52" y="0" width="4" height="50" />
		<rect x="58" y="0" width="4" height="50" />
		<rect x="66" y="0" width="4" height="50" />
		<rect x="72" y="0" width="4" height="50" />
		<rect x="80" y="0" width="4" height="50" />
		<rect x="88" y="0" width="4" height="50" />
		<rect x="96" y="0" width="4" height="50" />
		<rect x="104" y="0" width="4" height="50" />
		<rect x="110" y="0" width="4" height="50" />
		<rect x="118" y="0" width="6" height="50" />
		<rect x="126" y="0" width="2" height="50" />
		<rect x="132" y="0" width="4" height="50" />
		<rect x="142" y="0" width="6" height="50" />
		<rect x="150" y="0" width="2" height="50" />
		<rect x="154" y="0" width="4" height="50" />
	</g>
</svg>
